<svg xmlns="http://www.w3.org/2000/svg" version="1.1" xmlns:xlink="http://www.w3.org/1999/xlink" xmlns:svgjs="http://svgjs.dev/svgjs" width="208" height="100" viewBox="0 0 2000 100"><g transform="matrix(1,0,0,1,-1.2121212121212466,0.7628974095708827)"><svg viewBox="0 0 396 68" data-background-color="#c6e4ec" preserveAspectRatio="xMidYMid meet" height="343" width="2000" xmlns="http://www.w3.org/2000/svg" xmlns:xlink="http://www.w3.org/1999/xlink"><g id="tight-bounds" transform="matrix(1,0,0,1,0.2400000000000091,-0.15124496749510286)"><svg viewBox="0 0 395.52 68.30248993499019" height="68.30248993499019" width="395.52"><g><svg viewBox="0 0 395.52 68.30248993499019" height="68.30248993499019" width="395.52"><g><svg viewBox="0 0 397.49759999999986 68.64400238466513" height="68.30248993499019" width="395.52"><g><rect width="397.49759999999986" height="2.153003567628588" x="0" y="36.98062419790294" fill="#3d4335" opacity="1" stroke-width="0" stroke="transparent" fill-opacity="1" class="rect-qz-0" data-fill-palette-color="secondary" rx="1%" id="qz-0" data-palette-color="#3d4335"></rect></g><g transform="matrix(1,0,0,1,0.9887999999999693,44.76976275932364)"><svg viewBox="0 0 395.5199999999999 23.87423962534148" height="23.87423962534148" width="395.5199999999999"><g id="textblocktransform"><svg viewBox="0 0 395.5199999999999 23.87423962534148" height="23.87423962534148" width="395.5199999999999" id="textblock"><g><svg viewBox="0 0 395.5199999999999 23.87423962534148" height="23.87423962534148" width="395.5199999999999"><g transform="matrix(1,0,0,1,0,0)"><svg width="395.5199999999999" viewBox="3.5 -35 768.62 46.4" height="23.87423962534148" data-palette-color="#3d4335"><path d="M8.2-15.9L8.2 0 3.5 0 3.5-35 8.2-35 8.2-20.3 23.4-20.3 23.4-35 28.1-35 28.1 0 23.4 0 23.4-15.9 8.2-15.9ZM54.5-24L54.5 0 45.85 0Q40.3 0 37.9-1.65L37.9-1.65Q35.75-3.1 35.17-5.13 34.6-7.15 34.6-10.45L34.6-10.45 34.6-24 39-24 39-10.5Q39-9.6 39.05-8.97 39.1-8.35 39.4-7.38 39.7-6.4 40.25-5.78 40.8-5.15 41.85-4.67 42.9-4.2 44.4-4.2L44.4-4.2 50.1-4.2 50.1-24 54.5-24ZM68.55-24L77.4-24 77.4-19.8 68.55-19.8Q67.09-19.8 66.05-19.25 65-18.7 65-17.7L65-17.7Q65-17.1 65.25-16.63 65.5-16.15 65.82-15.85 66.15-15.55 66.82-15.23 67.5-14.9 67.87-14.78 68.25-14.65 71.05-13.75 73.84-12.85 75.2-12.25 76.55-11.65 77.27-10.63 78-9.6 78.2-8.63 78.4-7.65 78.4-6.7L78.4-6.7Q78.4 0 69.2 0L69.2 0 60.55 0 60.55-4.2 69.2-4.2Q73.9-4.2 73.9-6.7L73.9-6.7Q73.9-7.9 72.52-8.7 71.15-9.5 69.17-10.05 67.2-10.6 65.22-11.33 63.25-12.05 61.87-13.68 60.5-15.3 60.5-17.7L60.5-17.7Q60.5-20.75 62.85-22.38 65.2-24 68.55-24L68.55-24ZM85.34-19.8L80.89-19.8 89.84-28.75 89.84-24 96.59-24 96.59-19.8 89.84-19.8 89.84-9.5Q89.84-7.75 90.42-6.6 90.99-5.45 92.09-4.98 93.19-4.5 94.17-4.35 95.14-4.2 96.59-4.2L96.59-4.2 96.59 0Q90.84 0 88.09-2.2 85.34-4.4 85.34-9.5L85.34-9.5 85.34-19.8ZM132.69-35L137.39-35 137.39-18.15Q137.39-11.4 134.29-6.43 131.19-1.45 125.09 1L125.09 1Q119.04-1.4 115.89-6.25 112.74-11.1 112.74-17.7L112.74-17.7 112.74-35 117.54-35 117.54-18.3Q117.54-13.3 119.19-9.9 120.84-6.5 125.14-4.15L125.14-4.15Q129.34-6.55 131.01-9.95 132.69-13.35 132.69-18.3L132.69-18.3 132.69-35ZM145.89-20.85L145.89-20.85Q149.39-24.5 154.64-24.5L154.64-24.5Q157.19-24.5 159.41-23.53 161.64-22.55 163.31-20.85 164.99-19.15 165.94-16.88 166.89-14.6 166.89-12L166.89-12Q166.89-9.4 165.96-7.13 165.04-4.85 163.39-3.15 161.74-1.45 159.49-0.48 157.24 0.5 154.64 0.5L154.64 0.5Q151.99 0.5 149.76-0.48 147.54-1.45 145.89-3.15 144.24-4.85 143.31-7.13 142.39-9.4 142.39-12L142.39-12Q142.39-17.3 145.89-20.85ZM154.64-20.3L154.64-20.3Q151.14-20.3 149.01-18 146.89-15.7 146.89-12 146.89-8.3 149.01-6 151.14-3.7 154.64-3.7L154.64-3.7Q158.19-3.7 160.29-6.03 162.39-8.35 162.39-12 162.39-15.65 160.29-17.98 158.19-20.3 154.64-20.3ZM172.13-9.5L172.13-9.5 172.13-35 176.63-35 176.63-9.5Q176.63-7.7 177.06-6.58 177.48-5.45 178.38-4.98 179.28-4.5 180.13-4.35 180.98-4.2 182.38-4.2L182.38-4.2 182.38 0Q176.78 0 174.46-2.15 172.13-4.3 172.13-9.5ZM205.53-24L205.53 0 196.88 0Q191.33 0 188.93-1.65L188.93-1.65Q186.78-3.1 186.21-5.13 185.63-7.15 185.63-10.45L185.63-10.45 185.63-24 190.03-24 190.03-10.5Q190.03-9.6 190.08-8.97 190.13-8.35 190.43-7.38 190.73-6.4 191.28-5.78 191.83-5.15 192.88-4.67 193.93-4.2 195.43-4.2L195.43-4.2 201.13-4.2 201.13-24 205.53-24ZM212.03 0L212.03-24 220.68-24Q226.23-24 228.63-22.35L228.63-22.35Q230.78-20.9 231.35-18.88 231.93-16.85 231.93-13.55L231.93-13.55 231.93 0 227.53 0 227.53-13.5Q227.53-14.4 227.48-15.03 227.43-15.65 227.13-16.63 226.83-17.6 226.28-18.23 225.73-18.85 224.68-19.33 223.63-19.8 222.13-19.8L222.13-19.8 216.43-19.8 216.43 0 212.03 0ZM239.88-19.8L235.43-19.8 244.38-28.75 244.38-24 251.13-24 251.13-19.8 244.38-19.8 244.38-9.5Q244.38-7.75 244.95-6.6 245.53-5.45 246.63-4.98 247.73-4.5 248.7-4.35 249.68-4.2 251.13-4.2L251.13-4.2 251.13 0Q245.38 0 242.63-2.2 239.88-4.4 239.88-9.5L239.88-9.5 239.88-19.8ZM267.62-24.5L267.62-24.5Q276.12-24.15 276.12-17.45L276.12-17.45Q276.12-9.1 265.17-9.1L265.17-9.1 263.12-9.1 263.12-12.95 265.52-12.95Q268.87-12.95 270.17-13.98 271.47-15 271.47-17.4L271.47-17.4Q271.47-18.95 270.32-19.73 269.17-20.5 267.37-20.5L267.37-20.5Q263.82-20.5 261.8-18 259.77-15.5 259.77-12L259.77-12Q259.77-8.3 261.95-6 264.12-3.7 267.62-3.7L267.62-3.7Q270.77-3.7 272.77-5.25L272.77-5.25 275.77-2.3Q272.32 0.5 267.62 0.5L267.62 0.5Q261.92 0.5 258.52-2.85 255.12-6.2 255.12-11.5L255.12-11.5Q255.12-17.4 258.47-21.05 261.82-24.7 267.62-24.5ZM292.87-24.5L292.87-24.5Q301.37-24.15 301.37-17.45L301.37-17.45Q301.37-9.1 290.42-9.1L290.42-9.1 288.37-9.1 288.37-12.95 290.77-12.95Q294.12-12.95 295.42-13.98 296.72-15 296.72-17.4L296.72-17.4Q296.72-18.95 295.57-19.73 294.42-20.5 292.62-20.5L292.62-20.5Q289.07-20.5 287.05-18 285.02-15.5 285.02-12L285.02-12Q285.02-8.3 287.2-6 289.37-3.7 292.87-3.7L292.87-3.7Q296.02-3.7 298.02-5.25L298.02-5.25 301.02-2.3Q297.57 0.5 292.87 0.5L292.87 0.5Q287.17 0.5 283.77-2.85 280.37-6.2 280.37-11.5L280.37-11.5Q280.37-17.4 283.72-21.05 287.07-24.7 292.87-24.5ZM310.02 0L305.62 0 305.62-13.65Q305.62-19.4 307.77-21.6L307.77-21.6Q308.82-22.7 310.32-23.25 311.82-23.8 312.94-23.9 314.07-24 316.02-24L316.02-24 320.42-24 320.42-19.8 315.12-19.8Q314.12-19.8 313.57-19.75 313.02-19.7 312.27-19.4 311.52-19.1 310.97-18.45L310.97-18.45Q310.02-17.25 310.02-13.65L310.02-13.65 310.02 0ZM347.96-26.3L352.06-10.85 352.36-10.85 356.46-26.3Q357.76-31.3 360.46-33.15 363.16-35 368.61-35L368.61-35 368.61 0 363.91 0 363.91-29.7Q362.61-29.15 361.94-28.15 361.26-27.15 360.66-25.15L360.66-25.15 354.41-3.7 350.01-3.7 343.71-25.15Q343.11-27.2 342.46-28.18 341.81-29.15 340.51-29.7L340.51-29.7 340.51 0 335.81 0 335.81-35Q341.26-35 343.94-33.13 346.61-31.25 347.96-26.3L347.96-26.3ZM388.46-14.1L388.46-14.1 388.46-9.6Q386.56-11.05 383.81-11.05L383.81-11.05Q381.46-11.05 380.16-10.13 378.86-9.2 378.86-7.5L378.86-7.5Q378.86-4.2 383.76-4.2L383.76-4.2 390.36-4.2 390.36-13.75Q390.36-19.8 384.46-19.8L384.46-19.8 376.46-19.8 376.46-24 384.71-24Q389.56-24 392.16-21.6 394.76-19.2 394.76-14.7L394.76-14.7 394.76 0 383.61 0Q379.36 0 376.86-1.9 374.36-3.8 374.36-7.45 374.36-11.1 377.01-13 379.66-14.9 383.66-14.9L383.66-14.9Q385.91-14.9 388.46-14.1ZM400.51 0L400.51-24 409.16-24Q414.71-24 417.11-22.35L417.11-22.35Q419.26-20.9 419.83-18.88 420.41-16.85 420.41-13.55L420.41-13.55 420.41 0 416.01 0 416.01-13.5Q416.01-14.4 415.96-15.03 415.91-15.65 415.61-16.63 415.31-17.6 414.76-18.23 414.21-18.85 413.16-19.33 412.11-19.8 410.61-19.8L410.61-19.8 404.91-19.8 404.91 0 400.51 0ZM439.76-14.1L439.76-14.1 439.76-9.6Q437.86-11.05 435.11-11.05L435.11-11.05Q432.76-11.05 431.46-10.13 430.16-9.2 430.16-7.5L430.16-7.5Q430.16-4.2 435.06-4.2L435.06-4.2 441.66-4.2 441.66-13.75Q441.66-19.8 435.76-19.8L435.76-19.8 427.76-19.8 427.76-24 436.01-24Q440.86-24 443.46-21.6 446.06-19.2 446.06-14.7L446.06-14.7 446.06 0 434.91 0Q430.66 0 428.16-1.9 425.66-3.8 425.66-7.45 425.66-11.1 428.31-13 430.96-14.9 434.96-14.9L434.96-14.9Q437.21-14.9 439.76-14.1ZM462.7 0L462.7 0Q457.8 0 454.3-3.3 450.8-6.6 450.8-11.75L450.8-11.75Q450.8-16.95 454.33-20.48 457.85-24 463.05-24L463.05-24 474.8-24 474.8-0.7Q474.8 1.55 474.23 3.35 473.65 5.15 472.6 6.4 471.55 7.65 470.7 8.35 469.85 9.05 468.65 9.8L468.65 9.8Q465.55 11.4 461.1 11.4L461.1 11.4 455.5 11.4 455.5 7.2 460.65 7.2Q465.05 7.2 466.9 6.1L466.9 6.1Q470.3 4.2 470.3-0.2L470.3-0.2 470.3-19.8 463.05-19.8Q459.5-19.8 457.4-17.6 455.3-15.4 455.3-11.75L455.3-11.75Q455.3-8.25 457.48-6.23 459.65-4.2 462.7-4.2L462.7-4.2Q466-4.2 468.5-6L468.5-6 468.5-1.5Q465.8 0 462.7 0ZM492.8-24.5L492.8-24.5Q501.3-24.15 501.3-17.45L501.3-17.45Q501.3-9.1 490.35-9.1L490.35-9.1 488.3-9.1 488.3-12.95 490.7-12.95Q494.05-12.95 495.35-13.98 496.65-15 496.65-17.4L496.65-17.4Q496.65-18.95 495.5-19.73 494.35-20.5 492.55-20.5L492.55-20.5Q489-20.5 486.98-18 484.95-15.5 484.95-12L484.95-12Q484.95-8.3 487.13-6 489.3-3.7 492.8-3.7L492.8-3.7Q495.95-3.7 497.95-5.25L497.95-5.25 500.95-2.3Q497.5 0.5 492.8 0.5L492.8 0.5Q487.1 0.5 483.7-2.85 480.3-6.2 480.3-11.5L480.3-11.5Q480.3-17.4 483.65-21.05 487-24.7 492.8-24.5ZM506.55 0L506.55-24 528.6-24Q532.15-24 534.25-22.65L534.25-22.65Q536.4-21.3 537.07-19.15 537.75-17 537.75-14L537.75-14 537.75 0 533.35 0 533.35-14Q533.35-17.9 531-19.15L531-19.15Q529.8-19.8 526.15-19.8L526.15-19.8 524.1-19.8 524.1 0 519.7 0 519.7-19.8 510.95-19.8 510.95 0 506.55 0ZM555.5-24.5L555.5-24.5Q564-24.15 564-17.45L564-17.45Q564-9.1 553.04-9.1L553.04-9.1 551-9.1 551-12.95 553.39-12.95Q556.75-12.95 558.04-13.98 559.35-15 559.35-17.4L559.35-17.4Q559.35-18.95 558.2-19.73 557.04-20.5 555.25-20.5L555.25-20.5Q551.7-20.5 549.67-18 547.64-15.5 547.64-12L547.64-12Q547.64-8.3 549.82-6 552-3.7 555.5-3.7L555.5-3.7Q558.64-3.7 560.64-5.25L560.64-5.25 563.64-2.3Q560.2 0.5 555.5 0.5L555.5 0.5Q549.79 0.5 546.39-2.85 543-6.2 543-11.5L543-11.5Q543-17.4 546.35-21.05 549.7-24.7 555.5-24.5ZM569.24 0L569.24-24 577.89-24Q583.44-24 585.84-22.35L585.84-22.35Q587.99-20.9 588.57-18.88 589.14-16.85 589.14-13.55L589.14-13.55 589.14 0 584.74 0 584.74-13.5Q584.74-14.4 584.69-15.03 584.64-15.65 584.34-16.63 584.04-17.6 583.49-18.23 582.94-18.85 581.89-19.33 580.84-19.8 579.34-19.8L579.34-19.8 573.64-19.8 573.64 0 569.24 0ZM597.09-19.8L592.64-19.8 601.59-28.75 601.59-24 608.34-24 608.34-19.8 601.59-19.8 601.59-9.5Q601.59-7.75 602.16-6.6 602.74-5.45 603.84-4.98 604.94-4.5 605.91-4.35 606.89-4.2 608.34-4.2L608.34-4.2 608.34 0Q602.59 0 599.84-2.2 597.09-4.4 597.09-9.5L597.09-9.5 597.09-19.8ZM633.73-35L642.88-35 642.88-30.6 634.03-30.6Q628.98-30.6 628.98-26.5L628.98-26.5Q628.98-24.3 631.21-22.78 633.43-21.25 637.23-19.85L637.23-19.85Q638.93-19.2 640.13-18.53 641.33-17.85 642.53-16.75 643.73-15.65 644.33-13.93 644.93-12.2 644.93-9.95L644.93-9.95Q644.93-7.45 643.88-5.48 642.83-3.5 641.18-2.38 639.53-1.25 637.81-0.68 636.08-0.1 634.43-0.05L634.43-0.05Q633.73 0 632.43 0L632.43 0 624.63 0 624.63-4.4 632.28-4.4Q635.68-4.4 637.83-5.83 639.98-7.25 639.98-10L639.98-10Q639.98-11.35 639.38-12.38 638.78-13.4 637.66-14.15 636.53-14.9 635.36-15.45 634.18-16 632.53-16.6L632.53-16.6Q632.08-16.75 631.83-16.85L631.83-16.85Q623.98-19.85 623.98-26.65L623.98-26.65Q623.98-30.85 626.68-32.93 629.38-35 633.73-35L633.73-35ZM649.18-11.65L649.18-24 653.58-24 653.58-11.45Q653.58-7.4 654.83-5.8 656.08-4.2 659.43-4.2L659.43-4.2 664.68-4.2 664.68-24 669.08-24 669.08-1.2Q669.08 5.05 665.81 8.22 662.53 11.4 655.53 11.4L655.53 11.4 651.93 11.4 651.93 7.2 655.08 7.2Q664.23 7.2 664.68 0L664.68 0 660.48 0Q653.93 0 651.56-2.3 649.18-4.6 649.18-11.65L649.18-11.65ZM682.63-24L691.48-24 691.48-19.8 682.63-19.8Q681.18-19.8 680.13-19.25 679.08-18.7 679.08-17.7L679.08-17.7Q679.08-17.1 679.33-16.63 679.58-16.15 679.9-15.85 680.23-15.55 680.9-15.23 681.58-14.9 681.95-14.78 682.33-14.65 685.13-13.75 687.93-12.85 689.28-12.25 690.63-11.65 691.35-10.63 692.08-9.6 692.28-8.63 692.48-7.65 692.48-6.7L692.48-6.7Q692.48 0 683.28 0L683.28 0 674.63 0 674.63-4.2 683.28-4.2Q687.98-4.2 687.98-6.7L687.98-6.7Q687.98-7.9 686.6-8.7 685.23-9.5 683.25-10.05 681.28-10.6 679.3-11.33 677.33-12.05 675.95-13.68 674.58-15.3 674.58-17.7L674.58-17.7Q674.58-20.75 676.93-22.38 679.28-24 682.63-24L682.63-24ZM699.43-19.8L694.98-19.8 703.93-28.75 703.93-24 710.68-24 710.68-19.8 703.93-19.8 703.93-9.5Q703.93-7.75 704.5-6.6 705.08-5.45 706.18-4.98 707.28-4.5 708.25-4.35 709.23-4.2 710.68-4.2L710.68-4.2 710.68 0Q704.93 0 702.18-2.2 699.43-4.4 699.43-9.5L699.43-9.5 699.43-19.8ZM727.17-24.5L727.17-24.5Q735.67-24.15 735.67-17.45L735.67-17.45Q735.67-9.1 724.72-9.1L724.72-9.1 722.67-9.1 722.67-12.95 725.07-12.95Q728.42-12.95 729.72-13.98 731.02-15 731.02-17.4L731.02-17.4Q731.02-18.95 729.87-19.73 728.72-20.5 726.92-20.5L726.92-20.5Q723.37-20.5 721.35-18 719.32-15.5 719.32-12L719.32-12Q719.32-8.3 721.5-6 723.67-3.7 727.17-3.7L727.17-3.7Q730.32-3.7 732.32-5.25L732.32-5.25 735.32-2.3Q731.87 0.5 727.17 0.5L727.17 0.5Q721.47 0.5 718.07-2.85 714.67-6.2 714.67-11.5L714.67-11.5Q714.67-17.4 718.02-21.05 721.37-24.7 727.17-24.5ZM740.92 0L740.92-24 762.97-24Q766.52-24 768.62-22.65L768.62-22.65Q770.77-21.3 771.45-19.15 772.12-17 772.12-14L772.12-14 772.12 0 767.72 0 767.72-14Q767.72-17.9 765.37-19.15L765.37-19.15Q764.17-19.8 760.52-19.8L760.52-19.8 758.47-19.8 758.47 0 754.07 0 754.07-19.8 745.32-19.8 745.32 0 740.92 0Z" opacity="1" transform="matrix(1,0,0,1,0,0)" fill="#3d4335" class="wordmark-text-0" data-fill-palette-color="primary" id="text-0"></path></svg></g></svg></g></svg></g></svg></g><g transform="matrix(1,0,0,1,175.1341556106232,0)"><svg viewBox="0 0 47.22928877875346 31.34448920411083" height="31.34448920411083" width="47.22928877875346"><g><svg xmlns="http://www.w3.org/2000/svg" xmlns:xlink="http://www.w3.org/1999/xlink" version="1.1" x="8.000000000000002" y="0" viewBox="12.27473122892562 12.920280451071704 50.130794146046355 50.3157195489283" enable-background="new 0 0 75 75" xml:space="preserve" height="31.34448920411083" width="31.229288778753453" class="icon-icon-0" data-fill-palette-color="accent" id="icon-0"><path d="M26.755 40.782c-0.129 0.329-0.083 0.517-0.083 0.517l0.169 2.441c-0.084 3.34-1.546 4.432-1.546 4.432l2.068 13.305c-2.352-0.847-4.557-1.982-6.574-3.356l-0.86-9.6c0 0-0.462-0.233-1.381-0.656-0.917-0.422-1.878-1.608-2.123-2.014-0.24-0.407-0.808-1.545-2.189-2.587-1.378-1.043-1.511-0.545-1.875-1.178-0.366-0.631 0.551-1.029 0.551-1.029s2.548-0.497 4.701 2.189c0 0 0.065-0.017 0.181-0.033l0.03-0.102c-0.026 0.003-0.041 0.003-0.041 0.003 0.014-0.002 0.027-0.003 0.042-0.004l0.129-0.435c0 0 0.005-0.068 0.012-0.176 0.688-0.014 3.184 0.096 4.237 2.329 0.066 0.106 0.133 0.214 0.198 0.329 0 0-0.198-3.129-4.434-2.666 0.021-0.337 0.059-1.051 0.019-1.391-0.054-0.452-0.25-0.887-0.25-0.887l-2.182-5.145c0 0-0.416-0.867 0.356-1.273 0.771-0.406 1.192 0.293 1.192 0.293s2.312 4.621 2.573 5.193c0.261 0.571 0.609-0.167 0.609-0.167l-0.833-6.175c0 0-0.24-1.009 0.843-1.235 1.083-0.224 1.178 1.381 1.178 1.381s0.729 5.316 0.827 5.933c0.099 0.616 0.437 0.021 0.437 0.021s0.815-5.113 0.894-5.654c0.082-0.542 0.25-1.141 1.05-1.115 0.8 0.025 0.69 1.75 0.69 1.75s-0.611 5.189-0.638 5.578c-0.026 0.39 0.229 0.287 0.229 0.287s1.937-3.994 2.095-4.278c0.16-0.286 0.471-0.903 1.257-0.585 0.785 0.316 0.005 2.051 0.005 2.051S26.886 40.455 26.755 40.782zM62.189 38.072c-0.664-0.455-1.08 0.055-1.285 0.284-0.205 0.231-2.815 3.544-2.815 3.544s-0.257 0.042-0.153-0.312c0.104-0.356 1.729-5.043 1.729-5.043s0.452-1.58-0.283-1.768-1.014 0.335-1.202 0.82c-0.181 0.484-1.98 5.062-1.98 5.062s-0.438 0.484-0.4-0.105c0.034-0.592 0.441-5.674 0.441-5.674s0.24-1.508-0.811-1.521c-1.053-0.011-1.031 0.974-1.031 0.974L53.91 40.23c0 0-0.475 0.615-0.6 0.032-0.125-0.585-1.328-5.343-1.328-5.343s-0.246-0.736-1.045-0.516c-0.799 0.219-0.59 1.108-0.59 1.108l0.975 5.217c0 0 0.094 0.442 0.052 0.873-0.031 0.316-0.204 0.945-0.295 1.262 3.879 0.485 3.438 3.358 3.438 3.358-0.037-0.121-0.078-0.236-0.119-0.349-0.49-2.147-2.548-2.815-3.324-2.993-0.03 0.106-0.051 0.175-0.051 0.175l-0.209 0.377c-0.015-0.002-0.026-0.003-0.043-0.005 0 0 0.017 0.002 0.043 0.006l-0.049 0.089c-0.111-0.008-0.176-0.007-0.176-0.007-1.449-2.932-3.913-2.99-3.913-2.99s-0.934 0.184-0.724 0.843c0.209 0.663 0.436 0.229 1.502 1.476 1.068 1.248 1.363 2.42 1.504 2.846 0.143 0.426 0.792 1.725 1.559 2.301 0.765 0.579 1.146 0.891 1.146 0.891l-1.475 11.54c2.2-1.034 4.241-2.331 6.086-3.845l0.433-6.925c0 0 1.579-0.713 2.338-3.795l0.34-2.298c0 0-0.004-0.184 0.185-0.462 0.187-0.279 2.205-3.122 2.205-3.122S62.854 38.525 62.189 38.072zM51.367 19.826c-1.208-0.662-1.832 0.273-2.145 0.702-0.312 0.428-4.209 6.508-4.209 6.508s-0.43 0.117-0.312-0.506c0.116-0.625 2.104-8.887 2.104-8.887s0.506-2.766-0.779-2.962c-1.285-0.194-1.676 0.741-1.909 1.599-0.234 0.857-2.533 8.963-2.533 8.963s-0.663 0.897-0.701-0.117-0.194-9.743-0.194-9.743 0.156-2.612-1.638-2.456c-1.793 0.156-1.598 1.833-1.598 1.833l0.155 10.132c0 0-0.702 1.129-1.014 0.156-0.311-0.975-3.156-8.886-3.156-8.886s-0.546-1.209-1.871-0.702c-1.325 0.507-0.819 1.988-0.819 1.988l2.534 8.73c0 0 0.233 0.741 0.233 1.48 0 0.741-0.351 2.534-0.351 2.534l-0.035 0.081c6.907 0.081 6.622 5.158 6.622 5.158-0.082-0.195-0.165-0.377-0.252-0.559-1.257-3.792-5.23-4.468-6.376-4.585l-0.251 0.582c-0.024 0-0.046-0.001-0.07-0.001 0 0 0.024 0.001 0.069 0.004l-0.069 0.159c-0.19 0.006-0.299 0.02-0.299 0.02-2.96-4.756-7.17-4.444-7.17-4.444s-1.559 0.468-1.088 1.559c0.468 1.091 0.779 0.313 2.806 2.26 2.026 1.949 2.728 3.898 3.04 4.599 0.312 0.703 1.637 2.807 3.04 3.663 1.401 0.858 2.104 1.326 2.104 1.326l-0.672 23.079c0.966 0.094 1.946 0.143 2.938 0.143 2.5 0 4.927-0.306 7.241-0.879l-0.778-21.875c0 0 2.573-1.48 3.352-6.859l0.194-3.976c0 0-0.038-0.312 0.232-0.819 0.274-0.505 3.235-5.689 3.235-5.689S52.574 20.489 51.367 19.826z" fill="#3d4335" data-fill-palette-color="accent"></path></svg></g></svg></g><g><rect width="98.60103561062326" height="2.153003567628588" y="28.19148563648224" x="222.36344438937664" fill="#3d4335" data-fill-palette-color="secondary"></rect><rect width="98.60103561062326" height="2.153003567628588" y="28.19148563648224" x="76.53311999999994" fill="#3d4335" data-fill-palette-color="secondary"></rect></g></svg></g></svg></g><defs></defs></svg><rect width="395.52" height="68.30248993499019" fill="none" stroke="none" visibility="hidden"></rect></g></svg></g></svg>